<svg xmlns="http://www.w3.org/2000/svg" width="505" height="985" viewBox="0 0 505 985">
  <g fill="#66C863" fill-opacity="0.78" stroke="#4FAF4D" stroke-width="2" stroke-opacity="0.9">
    <path d="M62 283 C44 307 37 340 42 374 C47 404 58 425 73 433
             C91 424 104 401 109 369 C115 335 109 304 94 286
             C83 273 70 273 62 283Z"/>
    <path d="M443 283 C461 307 468 340 463 374 C458 404 447 425 432 433
             C414 424 401 401 396 369 C390 335 396 304 411 286
             C422 273 435 273 443 283Z"/>
    <path d="M34 410 C24 438 17 470 11 503 C6 527 9 545 21 552
             C34 546 45 529 52 507 C60 481 65 453 65 431
             C57 416 45 407 34 410Z"/>
    <path d="M471 410 C481 438 488 470 494 503 C499 527 496 545 484 552
             C471 546 460 529 453 507 C445 481 440 453 440 431
             C448 416 460 407 471 410Z"/>
  </g>
</svg>